<?xml version="1.0" encoding="UTF-8"?>
<svg width="20px" height="20px" viewBox="0 0 20 20" version="1.1" xmlns="http://www.w3.org/2000/svg" xmlns:xlink="http://www.w3.org/1999/xlink">
    <title>DARK</title>
    <g id="APP_LIGHT" stroke="none" stroke-width="1" fill="none" fill-rule="evenodd">
        <g id="22_10_04_01_AIAI_LIGHT" transform="translate(-1249.000000, -40.000000)">
            <g id="DARK" transform="translate(1249.000000, 40.000000)">
                <rect id="Rectangle" x="0" y="0" width="20" height="20"></rect>
                <path d="M17.5042582,13.198832 C17.3777275,13.0947648 17.1951972,13.0947648 17.0686666,13.198832 C16.05122,13.8451108 14.8679487,14.1823027 13.6624831,14.169478 C11.0883584,14.148538 8.77867109,12.5844292 7.80490216,10.2027533 C6.83113323,7.82107734 7.38383115,5.087884 9.2065953,3.2711217 C9.32211916,3.15860432 9.34571417,2.98173456 9.26372207,2.84289552 C9.182482,2.70457661 9.01889316,2.63742356 8.8638347,2.67874215 C5.22257615,3.72760573 2.89887632,7.28339532 3.40146317,11.0374138 C3.90405002,14.7914322 7.08135055,17.6115214 10.8704124,17.6666667 C13.6884534,17.6695766 16.2748119,16.1075748 17.5828075,13.612784 C17.6520586,13.4727515 17.6199989,13.3037982 17.5042582,13.198832 Z M10.8704126,16.9529986 C7.67260469,16.9196847 4.91234917,14.7048157 4.18867376,11.5914241 C3.46499835,8.47803256 4.96564029,5.27380036 7.82127133,3.83495284 C6.36515504,6.00285697 6.21823271,8.79497945 7.43879377,11.1035835 C8.65935484,13.4121876 11.0500807,14.8640594 13.6624834,14.8831883 C14.5424177,14.8857426 15.414813,14.7210432 16.2331879,14.3978653 C14.9275399,16.0205575 12.9538101,16.9609368 10.8704126,16.9529986 L10.8704126,16.9529986 Z" id="Shape" fill="#000000" fill-rule="nonzero"></path>
            </g>
        </g>
    </g>
</svg>