<?xml version="1.0" encoding="UTF-8"?>
<svg width="20px" height="20px" viewBox="0 0 20 20" version="1.1" xmlns="http://www.w3.org/2000/svg" xmlns:xlink="http://www.w3.org/1999/xlink">
    <title>LIGHT</title>
    <g id="APP_LIGHT" stroke="none" stroke-width="1" fill="none" fill-rule="evenodd">
        <g id="22_10_04_01_AIAI_LIGHT" transform="translate(-1209.000000, -40.000000)">
            <g id="Group-3" transform="translate(1199.000000, 34.000000)">
                <g id="LIGHT" transform="translate(10.000000, 6.000000)">
                    <rect id="Rectangle" x="0" y="0" width="20" height="20"></rect>
                    <path d="M9.93977581,3.75634223 C6.53023857,3.75634223 3.75634223,6.53023857 3.75634223,9.93977581 C3.75634223,13.349313 6.53023857,16.1232094 9.93977581,16.1232094 C13.349313,16.1232094 16.1232094,13.349313 16.1232094,9.93977581 C16.1232094,6.53023857 13.349313,3.75634223 9.93977581,3.75634223 Z M9.93977581,15.3466644 C6.95838665,15.3466644 4.53288721,12.921165 4.53288721,9.93977581 C4.53288721,6.95838665 6.95838665,4.53288721 9.93977581,4.53288721 C12.921165,4.53288721 15.3466644,6.95838665 15.3466644,9.93977581 C15.3466644,12.921165 12.921165,15.3466644 9.93977581,15.3466644 Z M9.93977581,2.61280208 C10.1542128,2.61280208 10.3280483,2.43896657 10.3280483,2.22452959 L10.3280483,0.388272493 C10.3280483,0.173835516 10.1542128,0 9.93977581,0 C9.72533883,0 9.55150332,0.173835516 9.55150332,0.388272493 L9.55150332,2.22452959 C9.55150332,2.43896657 9.72533883,2.61280208 9.93977581,2.61280208 Z M9.93977581,17.2667495 C9.72533883,17.2667495 9.55150332,17.440585 9.55150332,17.655022 L9.55150332,19.4912791 C9.55150332,19.7057161 9.72533883,19.8795516 9.93977581,19.8795516 C10.1542128,19.8795516 10.3280483,19.7057161 10.3280483,19.4912791 L10.3280483,17.655022 C10.3280483,17.440585 10.1542128,17.2667495 9.93977581,17.2667495 Z M5.74588931,3.45232487 C5.8531078,3.63803801 6.0905758,3.7016705 6.27628895,3.59445201 C6.46200209,3.48723352 6.52563458,3.24976552 6.41841609,3.06405237 L5.50026813,1.47380473 C5.43140351,1.35268282 5.30291962,1.27774528 5.16358994,1.27743804 C5.02426027,1.27713268 4.89544814,1.35150457 4.82605164,1.47232253 C4.75665513,1.59314048 4.75731478,1.74187954 4.82778017,1.86207722 L5.74588931,3.45232487 Z M14.1336623,16.4272267 C14.0264438,16.2415136 13.7889758,16.1778811 13.6032627,16.2850996 C13.4175495,16.3923181 13.353917,16.6297861 13.4611355,16.8154992 L14.3792835,18.4057469 C14.4481481,18.5268688 14.576632,18.6018063 14.7159617,18.6021136 C14.8552914,18.6024189 14.9841035,18.528047 15.0535,18.4072291 C15.1228965,18.2864111 15.1222368,18.1376721 15.0517714,18.0174744 L14.1336623,16.4272267 Z M3.45232487,5.74588931 L1.86207722,4.82778017 C1.74187954,4.75731478 1.59314048,4.75665513 1.47232253,4.82605164 C1.35150457,4.89544814 1.27713268,5.02426027 1.27743804,5.16358994 C1.27774528,5.30291962 1.35268282,5.43140351 1.47380473,5.50026813 L3.06405237,6.41841609 C3.24976552,6.52563458 3.48723352,6.46200209 3.59445201,6.27628895 C3.7016705,6.0905758 3.63803801,5.8531078 3.45232487,5.74588931 L3.45232487,5.74588931 Z M18.4057469,14.3792835 L16.8154992,13.4611355 C16.6297861,13.353917 16.3923181,13.4175495 16.2850996,13.6032627 C16.1778811,13.7889758 16.2415136,14.0264438 16.4272267,14.1336623 L18.0174744,15.0517714 C18.1376721,15.1222368 18.2864111,15.1228965 18.4072291,15.0535 C18.528047,14.9841035 18.6024189,14.8552914 18.6021136,14.7159617 C18.6018063,14.576632 18.5268688,14.4481481 18.4057469,14.3792835 L18.4057469,14.3792835 Z M2.61280208,9.93977581 C2.61280208,9.72533883 2.43896657,9.55150332 2.22452959,9.55150332 L0.388272493,9.55150332 C0.173835516,9.55150332 0,9.72533883 0,9.93977581 C0,10.1542128 0.173835516,10.3280483 0.388272493,10.3280483 L2.22452959,10.3280483 C2.43896657,10.3280483 2.61280208,10.1542128 2.61280208,9.93977581 Z M19.4912791,9.55150332 L17.655022,9.55150332 C17.440585,9.55150332 17.2667495,9.72533883 17.2667495,9.93977581 C17.2667495,10.1542128 17.440585,10.3280483 17.655022,10.3280483 L19.4912791,10.3280483 C19.7057161,10.3280483 19.8795516,10.1542128 19.8795516,9.93977581 C19.8795516,9.72533883 19.7057161,9.55150332 19.4912791,9.55150332 Z M3.06405237,13.4611355 L1.47380473,14.3792835 C1.35268282,14.4481481 1.27774528,14.576632 1.27743804,14.7159617 C1.27713268,14.8552914 1.35150457,14.9841035 1.47232253,15.0535 C1.59314048,15.1228965 1.74187954,15.1222368 1.86207722,15.0517714 L3.45232487,14.1336623 C3.63803799,14.0264438 3.70167047,13.7889758 3.59445199,13.6032627 C3.48723351,13.4175495 3.24976552,13.3539171 3.06405237,13.4611355 L3.06405237,13.4611355 Z M16.6219454,6.47048377 C16.6899856,6.47048377 16.7568205,6.45252542 16.8156934,6.41841609 L18.405941,5.50026813 C18.5270629,5.43140351 18.6020005,5.30291962 18.6023077,5.16358994 C18.6026131,5.02426027 18.5282412,4.89544814 18.4074232,4.82605164 C18.2866053,4.75665513 18.1378662,4.75731478 18.0176685,4.82778017 L16.4274209,5.74588931 C16.2750962,5.83376274 16.2008494,6.01304228 16.2464446,6.18288228 C16.2920398,6.35272229 16.4460918,6.47071275 16.6219454,6.47048377 L16.6219454,6.47048377 Z M6.27626953,16.285119 C6.09056644,16.1779056 5.8531109,16.2415284 5.74588931,16.4272267 L4.82778017,18.0174744 C4.75731478,18.1376721 4.75665513,18.2864111 4.82605164,18.4072291 C4.89544814,18.528047 5.02426027,18.6024189 5.16358994,18.6021136 C5.30291962,18.6018063 5.43140351,18.5268688 5.50026813,18.4057469 L6.41841609,16.8154992 C6.52562301,16.629786 6.461982,16.3923273 6.27626953,16.285119 L6.27626953,16.285119 Z M13.6032821,3.5944326 C13.7889852,3.70164603 14.0264407,3.63802324 14.1336623,3.45232487 L15.0517714,1.86207722 C15.1222368,1.74187954 15.1228965,1.59314048 15.0535,1.47232253 C14.9841035,1.35150457 14.8552914,1.27713268 14.7159617,1.27743804 C14.576632,1.27774528 14.4481481,1.35268282 14.3792835,1.47380473 L13.4611355,3.06405237 C13.3539286,3.24976563 13.4175696,3.48722431 13.6032821,3.5944326 L13.6032821,3.5944326 Z" id="Combined-Shape" fill="#FFFFFF" fill-rule="nonzero"></path>
                </g>
            </g>
        </g>
    </g>
</svg>